<svg width="313" height="43" viewBox="0 0 313 43" fill="none" xmlns="http://www.w3.org/2000/svg">
<path d="M0 9.456V24.144C0 29.328 4.224 33.6 9.456 33.6H15.744L16.8 29.376H9.456C6.528 29.376 4.176 27.024 4.176 24.144V9.456C4.176 6.576 6.528 4.176 9.456 4.176H32.544C35.424 4.176 37.776 6.576 37.776 9.456V24.144C37.776 27.024 35.424 29.376 32.544 29.376H29.472L19.584 15.36H14.736L27.216 33.6H32.544C37.776 33.6 42 29.328 42 24.144V9.456C42 4.224 37.728 0 32.544 0H9.456C4.224 0 0 4.224 0 9.456Z" fill="#8E949D"/>
<path d="M52.2656 25.2C52.2656 29.808 56.0576 33.6 60.6656 33.6H77.4656C82.1216 33.6 85.8656 29.808 85.8656 25.2V8.16H81.6896V25.2C81.6896 27.504 79.7696 29.376 77.4656 29.376H60.6656C58.3616 29.376 56.4896 27.504 56.4896 25.2V8.16H52.2656V25.2Z" fill="#8E949D"/>
<path d="M94.5469 25.2C94.5469 29.856 98.3389 33.6 102.947 33.6H106.115L107.123 29.424H102.947C100.643 29.424 98.7229 27.504 98.7229 25.2V8.16H94.5469V25.2ZM94.5469 0V4.176H98.7709V0H94.5469Z" fill="#8E949D"/>
<path d="M148.545 33.6V29.376H122.577L148.545 13.584V8.16H114.609V12.384H142.305L114.609 29.232V33.6H148.545Z" fill="#8E949D"/>
<path d="M205.658 0L186.938 33.6H191.786L207.913 4.56L224.09 33.6H228.938L210.217 0H205.658Z" fill="#8E949D"/>
<path d="M236.156 42.24H240.38V32.448C241.58 33.168 243.02 33.6 244.556 33.6H261.356C266.012 33.6 269.756 29.808 269.756 25.2V16.56C269.756 11.904 266.012 8.16 261.356 8.16H244.556C243.02 8.16 241.58 8.592 240.38 9.312V8.16H236.156V42.24ZM240.38 16.56C240.38 14.256 242.252 12.336 244.556 12.336H261.356C263.66 12.336 265.58 14.256 265.58 16.56V25.2C265.58 27.504 263.66 29.376 261.356 29.376H244.556C242.252 29.376 240.38 27.504 240.38 25.2V16.56Z" fill="#8E949D"/>
<path d="M278.906 42.24H283.13V32.448C284.33 33.168 285.77 33.6 287.306 33.6H304.106C308.762 33.6 312.506 29.808 312.506 25.2V16.56C312.506 11.904 308.762 8.16 304.106 8.16H287.306C285.77 8.16 284.33 8.592 283.13 9.312V8.16H278.906V42.24ZM283.13 16.56C283.13 14.256 285.002 12.336 287.306 12.336H304.106C306.41 12.336 308.33 14.256 308.33 16.56V25.2C308.33 27.504 306.41 29.376 304.106 29.376H287.306C285.002 29.376 283.13 27.504 283.13 25.2V16.56Z" fill="#8E949D"/>
</svg>
